<svg width="21" height="20" viewBox="0 0 21 20" fill="none" xmlns="http://www.w3.org/2000/svg">
<g id="Symbol=Diamond, Component=Symbol">
<path id="Vector" d="M16.5576 11.6715C15.6047 15.228 12.0392 17.3627 8.5939 16.4395C5.14859 15.5163 3.12813 11.8849 4.08109 8.32844C5.03402 4.77201 8.5995 2.63732 12.0448 3.56049C15.4901 4.48365 17.5106 8.11509 16.5576 11.6715Z" fill="#A56402"/>
<path id="Vector_2" fill-rule="evenodd" clip-rule="evenodd" d="M16.96 11.7795C15.9508 15.546 12.1655 17.828 8.48601 16.842C4.80646 15.8561 2.66932 11.9873 3.67857 8.22068C4.68782 4.4541 8.47307 2.17216 12.1526 3.1581C15.8321 4.14401 17.9693 8.01287 16.96 11.7795ZM8.59384 16.4396C12.0392 17.3627 15.6046 15.228 16.5576 11.6716C17.5105 8.11516 15.4901 4.48372 12.0448 3.56056C8.59946 2.63739 5.03399 4.77208 4.08103 8.32851C3.12809 11.885 5.14855 15.5164 8.59384 16.4396Z" fill="#5B3303"/>
<path id="Vector_3" d="M16.1411 11.2548C15.1882 14.8112 11.6227 16.9459 8.17739 16.0227C4.73208 15.0996 2.71162 11.4681 3.66458 7.9117C4.61752 4.35526 8.183 2.22057 11.6283 3.14374C15.0736 4.0669 17.0941 7.69834 16.1411 11.2548Z" fill="#FFB423"/>
<path id="Vector_4" fill-rule="evenodd" clip-rule="evenodd" d="M16.5435 11.3627C15.5343 15.1293 11.749 17.4112 8.0695 16.4253C4.38996 15.4394 2.25281 11.5705 3.26206 7.80393C4.27131 4.03735 8.05656 1.75541 11.7361 2.74135C15.4156 3.72727 17.5528 7.59612 16.5435 11.3627ZM8.17734 16.0228C11.6226 16.946 15.1881 14.8113 16.1411 11.2548C17.094 7.69841 15.0736 4.06697 11.6283 3.14381C8.18296 2.22064 4.61748 4.35533 3.66452 7.91177C2.71159 11.4682 4.73204 15.0997 8.17734 16.0228Z" fill="#5B3303"/>
<path id="Vector_5" d="M14.9337 10.9312C14.1594 13.8208 11.2794 15.5598 8.50088 14.8153C5.72243 14.0708 4.0977 11.1248 4.87197 8.23521C5.64622 5.34559 8.52628 3.60663 11.3048 4.35113C14.0832 5.09561 15.7079 8.04163 14.9337 10.9312Z" fill="#FFCF23"/>
<path id="Vector_6" fill-rule="evenodd" clip-rule="evenodd" d="M15.3361 11.0392C14.5062 14.1361 11.4084 16.0259 8.39293 15.2179C5.37745 14.4099 3.63957 11.2244 4.46939 8.12751C5.29918 5.03065 8.39701 3.14082 11.4125 3.9488C14.428 4.7568 16.1658 7.94236 15.3361 11.0392ZM8.50078 14.8155C11.2792 15.56 14.1593 13.821 14.9336 10.9314C15.7078 8.04178 14.0831 5.09576 11.3047 4.35128C8.52618 3.60678 5.64612 5.34576 4.87184 8.23536C4.09757 11.125 5.7223 14.071 8.50078 14.8155Z" fill="#DF8D12"/>
<path id="Vector_7" fill-rule="evenodd" clip-rule="evenodd" d="M13.7703 5.87355C13.1979 5.36342 12.5056 4.97792 11.7214 4.7678C8.94296 4.0233 6.0629 5.76227 5.28863 8.65188C4.789 10.5165 5.28834 12.4047 6.452 13.7096C4.9964 12.4123 4.31623 10.3092 4.87196 8.23521C5.64623 5.34561 8.5263 3.60663 11.3048 4.35113C12.2903 4.61519 13.1307 5.15625 13.7703 5.87355Z" fill="#FFDD65"/>
<path id="Vector_8" d="M13.5658 11.9024C13.6336 12.0511 13.5681 12.2265 13.4194 12.2943C13.2708 12.3621 13.0953 12.2966 13.0275 12.1479C12.9597 11.9993 13.0252 11.8238 13.1739 11.756C13.3225 11.6882 13.498 11.7537 13.5658 11.9024Z" fill="url(#paint0_linear_2577_160352)"/>
<path id="Vector_9" d="M14.7575 10.7085C14.8253 10.8572 14.7597 11.0327 14.6111 11.1005C14.4624 11.1683 14.2869 11.1028 14.2191 10.9541C14.1513 10.8054 14.2169 10.63 14.3655 10.5622C14.5142 10.4943 14.6897 10.5599 14.7575 10.7085Z" fill="url(#paint1_linear_2577_160352)"/>
<path id="Vector_10" d="M13.3148 10.5884C13.3827 10.7371 13.3171 10.9126 13.1684 10.9804C13.0198 11.0482 12.8443 10.9826 12.7765 10.834C12.7087 10.6853 12.7742 10.5098 12.9229 10.442C13.0716 10.3742 13.2471 10.4398 13.3148 10.5884Z" fill="url(#paint2_linear_2577_160352)"/>
<path id="Vector_11" d="M13.9202 11.0266C13.9674 11.1301 13.9217 11.2523 13.8182 11.2996C13.7147 11.3468 13.5925 11.3011 13.5452 11.1976C13.498 11.0941 13.5437 10.9719 13.6472 10.9246C13.7507 10.8774 13.8729 10.9231 13.9202 11.0266Z" fill="url(#paint3_linear_2577_160352)"/>
<path id="Vector_12" d="M13.8398 10.1225C13.8871 10.2261 13.8414 10.3483 13.7379 10.3955C13.6344 10.4427 13.5122 10.3971 13.4649 10.2935C13.4177 10.19 13.4633 10.0678 13.5669 10.0206C13.6704 9.97336 13.7926 10.019 13.8398 10.1225Z" fill="url(#paint4_linear_2577_160352)"/>
<path id="Vector_13" d="M14.781 9.91991C14.8282 10.0234 14.7826 10.1456 14.679 10.1929C14.5755 10.2401 14.4533 10.1945 14.4061 10.0909C14.3589 9.98739 14.4045 9.86518 14.508 9.81795C14.6116 9.77072 14.7338 9.81637 14.781 9.91991Z" fill="url(#paint5_linear_2577_160352)"/>
<path id="Vector_14" d="M14.9026 8.63327C14.9498 8.73681 14.9041 8.85902 14.8006 8.90625C14.6971 8.95345 14.5749 8.90781 14.5277 8.80429C14.4804 8.70075 14.5261 8.57854 14.6296 8.53133C14.7331 8.4841 14.8554 8.52975 14.9026 8.63327Z" fill="url(#paint6_linear_2577_160352)"/>
<path id="Vector_15" d="M14.2649 9.47582C14.3121 9.57934 14.2665 9.70155 14.1629 9.74877C14.0594 9.796 13.9372 9.75036 13.89 9.64682C13.8428 9.5433 13.8884 9.42109 13.9919 9.37386C14.0955 9.32663 14.2177 9.37228 14.2649 9.47582Z" fill="url(#paint7_linear_2577_160352)"/>
<path id="Vector_16" d="M14.4333 11.5764C14.4806 11.6799 14.4349 11.8021 14.3314 11.8494C14.2279 11.8966 14.1056 11.8509 14.0584 11.7474C14.0112 11.6439 14.0569 11.5217 14.1604 11.4744C14.2639 11.4272 14.3861 11.4729 14.4333 11.5764Z" fill="url(#paint8_linear_2577_160352)"/>
<path id="Vector_17" d="M13.4963 12.7924C13.5399 12.888 13.4977 13.001 13.4021 13.0446C13.3064 13.0883 13.1934 13.0461 13.1498 12.9504C13.1061 12.8547 13.1483 12.7418 13.244 12.6981C13.3397 12.6545 13.4526 12.6967 13.4963 12.7924Z" fill="url(#paint9_linear_2577_160352)"/>
<path id="Vector_18" d="M13.9445 12.2752C13.9712 12.3338 13.9454 12.4029 13.8868 12.4296C13.8283 12.4563 13.7592 12.4305 13.7325 12.3719C13.7058 12.3134 13.7316 12.2443 13.7901 12.2176C13.8486 12.1909 13.9178 12.2167 13.9445 12.2752Z" fill="url(#paint10_linear_2577_160352)"/>
<path id="Vector_19" d="M13.1208 11.3215C13.1572 11.4012 13.1221 11.4952 13.0424 11.5315C12.9628 11.5678 12.8688 11.5327 12.8324 11.4531C12.7961 11.3734 12.8312 11.2794 12.9109 11.2431C12.9905 11.2068 13.0845 11.2419 13.1208 11.3215Z" fill="url(#paint11_linear_2577_160352)"/>
<path id="Vector_20" d="M14.3262 8.82078C14.3625 8.90042 14.3274 8.99442 14.2477 9.03076C14.1681 9.06709 14.0741 9.03197 14.0378 8.95234C14.0014 8.87269 14.0366 8.77869 14.1162 8.74236C14.1958 8.70603 14.2898 8.74115 14.3262 8.82078Z" fill="url(#paint12_linear_2577_160352)"/>
<path id="Vector_21" d="M14.8018 9.40526C14.8381 9.48489 14.803 9.57891 14.7233 9.61522C14.6437 9.65155 14.5497 9.61643 14.5133 9.5368C14.477 9.45716 14.5121 9.36316 14.5918 9.32682C14.6714 9.29051 14.7654 9.32562 14.8018 9.40526Z" fill="url(#paint13_linear_2577_160352)"/>
<path id="Vector_22" d="M12.918 12.4419C12.9543 12.5215 12.9192 12.6155 12.8395 12.6518C12.7599 12.6882 12.6659 12.6531 12.6296 12.5734C12.5932 12.4938 12.6283 12.3998 12.708 12.3634C12.7876 12.3271 12.8816 12.3622 12.918 12.4419Z" fill="url(#paint14_linear_2577_160352)"/>
<path id="Vector_23" d="M12.8281 13.3655C12.8645 13.4451 12.8293 13.5391 12.7497 13.5754C12.6701 13.6118 12.5761 13.5767 12.5397 13.497C12.5034 13.4174 12.5385 13.3234 12.6181 13.287C12.6978 13.2507 12.7918 13.2858 12.8281 13.3655Z" fill="url(#paint15_linear_2577_160352)"/>
<path id="Vector_24" fill-rule="evenodd" clip-rule="evenodd" d="M9.02739 6.25792C9.59893 6.05069 10.2236 6.08719 10.7371 6.19704C11.2358 6.30375 11.658 6.45888 12.0207 6.70238C12.3893 6.9499 12.6445 7.25386 12.855 7.57884C13.1051 7.96515 12.9947 8.48111 12.6084 8.73125C12.2221 8.98142 11.7061 8.87102 11.456 8.48471C11.3261 8.28417 11.2178 8.17081 11.0917 8.08611C10.9595 7.99738 10.7555 7.90536 10.3884 7.82684C10.0361 7.75146 9.76018 7.76506 9.59552 7.82477C9.52295 7.85109 9.48262 7.88209 9.45683 7.91115C9.43204 7.93911 9.39358 7.99565 9.36814 8.11454C9.3427 8.23346 9.35466 8.30077 9.36585 8.33644C9.37747 8.3735 9.4016 8.41829 9.45706 8.47198C9.58287 8.59384 9.82908 8.71915 10.1814 8.79452C10.6949 8.90438 11.2798 9.12665 11.7165 9.54957C12.1962 10.0141 12.4423 10.6743 12.2757 11.4529C12.1092 12.2316 11.6145 12.7333 10.9867 12.9609C10.4152 13.1681 9.79054 13.1316 9.27702 13.0218C8.20635 12.7927 7.4837 12.2152 7.13375 11.5981C6.9067 11.1978 7.0472 10.6892 7.44754 10.4622C7.84789 10.2351 8.35647 10.3756 8.58352 10.776C8.67185 10.9318 8.96472 11.2506 9.62568 11.392C9.97802 11.4674 10.2539 11.4538 10.4186 11.3941C10.4911 11.3678 10.5315 11.3367 10.5573 11.3077C10.5821 11.2797 10.6205 11.2232 10.646 11.1043C10.6714 10.9854 10.6594 10.9181 10.6482 10.8824C10.6366 10.8453 10.6125 10.8005 10.5571 10.7468C10.4312 10.625 10.185 10.4997 9.83272 10.4243C9.3192 10.3144 8.73431 10.0922 8.2976 9.66925C7.81791 9.20471 7.57177 8.54459 7.73835 7.76588C7.90495 6.98719 8.39964 6.48554 9.02739 6.25792Z" fill="#C37808"/>
<path id="Vector_25" fill-rule="evenodd" clip-rule="evenodd" d="M11.0147 4.89825C11.4648 4.99454 11.7516 5.43743 11.6553 5.88748L11.3938 7.10981C11.2975 7.55987 10.8546 7.84666 10.4045 7.75037C9.95449 7.6541 9.6677 7.21121 9.76397 6.76114L10.0255 5.53881C10.1218 5.08875 10.5647 4.80198 11.0147 4.89825Z" fill="#C37808"/>
<path id="Vector_26" fill-rule="evenodd" clip-rule="evenodd" d="M9.62555 11.3919C10.0756 11.4882 10.3624 11.9311 10.2661 12.3811L10.0046 13.6035C9.90832 14.0535 9.46542 14.3403 9.01538 14.244C8.56532 14.1477 8.27852 13.7049 8.37482 13.2548L8.63632 12.0325C8.73261 11.5824 9.17548 11.2956 9.62555 11.3919Z" fill="#C37808"/>
<path id="Vector_27" fill-rule="evenodd" clip-rule="evenodd" d="M9.20475 6.74748C9.64915 6.58636 10.1648 6.60719 10.6279 6.70627C11.0855 6.80417 11.4395 6.93959 11.7302 7.13471C12.0231 7.33136 12.2323 7.57573 12.4176 7.86184C12.5114 8.00669 12.47 8.20019 12.3251 8.294C12.1803 8.38779 11.9868 8.3464 11.893 8.20155C11.7379 7.96211 11.5838 7.78919 11.3818 7.65361C11.1776 7.5165 10.9054 7.40477 10.4972 7.31744C10.0945 7.23129 9.70961 7.22923 9.41779 7.33505C9.14706 7.43321 8.93944 7.62786 8.85865 8.0055C8.77786 8.38315 8.88767 8.64571 9.09454 8.84605C9.31752 9.06198 9.66956 9.21759 10.0723 9.30373C10.5354 9.40282 11.0144 9.59479 11.354 9.92363C11.7097 10.2681 11.8939 10.7475 11.7663 11.3439C11.6387 11.9403 11.2745 12.3024 10.809 12.4712C10.3646 12.6323 9.84894 12.6115 9.38579 12.5124C8.44315 12.3107 7.85481 11.814 7.58663 11.3411C7.50148 11.191 7.55417 11.0003 7.70429 10.9151C7.85442 10.83 8.04515 10.8827 8.13027 11.0328C8.30038 11.3328 8.72754 11.7324 9.51654 11.9012C9.91923 11.9874 10.3041 11.9894 10.5959 11.8836C10.8667 11.7854 11.0743 11.5908 11.1551 11.2131C11.2359 10.8355 11.1261 10.5729 10.9192 10.3726C10.6962 10.1567 10.3442 10.0011 9.9415 9.91492C9.47836 9.81584 8.99929 9.62386 8.65973 9.29502C8.30406 8.95059 8.1199 8.47115 8.24748 7.87475C8.37506 7.27836 8.73927 6.91625 9.20475 6.74748Z" fill="#FFB423"/>
<path id="Vector_28" fill-rule="evenodd" clip-rule="evenodd" d="M10.9058 5.40761C11.0746 5.44372 11.1821 5.60982 11.146 5.77857L10.8845 7.00093C10.8484 7.1697 10.6823 7.27724 10.5135 7.24113C10.3448 7.20503 10.2372 7.03895 10.2733 6.87018L10.5348 5.64782C10.5709 5.47905 10.737 5.37151 10.9058 5.40761Z" fill="#FFB423"/>
<path id="Vector_29" fill-rule="evenodd" clip-rule="evenodd" d="M9.51663 11.9013C9.68541 11.9374 9.79295 12.1035 9.75684 12.2722L9.49534 13.4946C9.45924 13.6633 9.29316 13.7709 9.12438 13.7348C8.95561 13.6987 8.84807 13.5326 8.88418 13.3638L9.14568 12.1415C9.18178 11.9727 9.34786 11.8652 9.51663 11.9013Z" fill="#FFB423"/>
<path id="Vector_30" fill-rule="evenodd" clip-rule="evenodd" d="M4.18161 7.59097C4.07383 7.5507 4.01911 7.43068 4.05938 7.32288C4.77848 5.39851 6.38888 3.90918 8.38894 3.35718C8.49986 3.32655 8.61458 3.39165 8.64519 3.50257C8.67579 3.61349 8.61071 3.72822 8.49979 3.75882C6.62948 4.27503 5.1224 5.66853 4.44969 7.46874C4.40942 7.57653 4.2894 7.63124 4.18161 7.59097Z" fill="#FFCF72"/>
<path id="Vector_31" fill-rule="evenodd" clip-rule="evenodd" d="M15.0936 12.7405C15.1909 12.8019 15.2199 12.9306 15.1585 13.0279C14.6711 13.7993 14.025 14.4604 13.2658 14.9651C13.17 15.0288 13.0407 15.0028 12.977 14.907C12.9133 14.8112 12.9393 14.6818 13.0351 14.6181C13.7455 14.1458 14.3502 13.5272 14.8062 12.8053C14.8676 12.7081 14.9963 12.679 15.0936 12.7405Z" fill="#FFCF72"/>
<path id="Vector_32" fill-rule="evenodd" clip-rule="evenodd" d="M6.47666 4.75661C6.47662 4.75665 6.47671 4.75659 6.47666 4.75661L6.3611 4.58328C6.47666 4.75661 6.47664 4.75663 6.47666 4.75661L6.47591 4.75713L6.47169 4.76001C6.46775 4.7627 6.4616 4.76697 6.45341 4.77272C6.43708 4.78422 6.41273 4.80174 6.38194 4.82482C6.32031 4.87103 6.23333 4.93936 6.13371 5.02653C5.93331 5.20186 5.68735 5.44865 5.49279 5.74051C5.42896 5.83624 5.2996 5.86211 5.20387 5.79828C5.10814 5.73447 5.08227 5.60511 5.1461 5.50938C5.36819 5.17624 5.64306 4.9022 5.85933 4.71295C5.96804 4.61782 6.06335 4.54293 6.13194 4.49149C6.16627 4.46574 6.19398 4.4458 6.21344 4.43209C6.22319 4.42524 6.23085 4.41992 6.23627 4.41622L6.24269 4.41186L6.24456 4.41059L6.24516 4.4102L6.24537 4.41005C6.24541 4.41001 6.24554 4.40993 6.3611 4.58328L6.24537 4.41005C6.34112 4.34622 6.47062 4.37199 6.53446 4.46772C6.59825 4.5634 6.57229 4.69278 6.47666 4.75661Z" fill="#FFE9AF"/>
<path id="Vector_33" fill-rule="evenodd" clip-rule="evenodd" d="M7.30992 5.79836C7.30987 5.7984 7.30996 5.79834 7.30992 5.79836L7.19435 5.62503C7.30992 5.79836 7.30989 5.79838 7.30992 5.79836L7.30917 5.79888L7.30494 5.80176C7.301 5.80444 7.29485 5.80871 7.28667 5.81446C7.27033 5.82596 7.24598 5.84349 7.21519 5.86657C7.15356 5.91278 7.06658 5.98111 6.96696 6.06828C6.76656 6.24361 6.5206 6.4904 6.32604 6.78226C6.26221 6.87799 6.13285 6.90386 6.03712 6.84003C5.9414 6.77622 5.91552 6.64686 5.97935 6.55113C6.20144 6.21799 6.47631 5.94394 6.69258 5.75469C6.80129 5.65957 6.8966 5.58467 6.96519 5.53324C6.99952 5.50749 7.02723 5.48755 7.04669 5.47384C7.05644 5.46699 7.0641 5.46167 7.06952 5.45796L7.07594 5.45361L7.07781 5.45234L7.07842 5.45194L7.07862 5.4518C7.07867 5.45176 7.07879 5.45167 7.19435 5.62503L7.07862 5.4518C7.17437 5.38796 7.30387 5.41374 7.36771 5.50946C7.4315 5.60515 7.40554 5.73453 7.30992 5.79836Z" fill="white"/>
</g>
<defs>
<linearGradient id="paint0_linear_2577_160352" x1="13.5926" y1="12.3211" x2="12.8883" y2="12.1169" gradientUnits="userSpaceOnUse">
<stop stop-color="#F9DB43"/>
<stop offset="1" stop-color="#FD495E"/>
</linearGradient>
<linearGradient id="paint1_linear_2577_160352" x1="14.7842" y1="11.1272" x2="14.08" y2="10.9231" gradientUnits="userSpaceOnUse">
<stop stop-color="#F9DB43"/>
<stop offset="1" stop-color="#FD495E"/>
</linearGradient>
<linearGradient id="paint2_linear_2577_160352" x1="13.3416" y1="11.0071" x2="12.6374" y2="10.8029" gradientUnits="userSpaceOnUse">
<stop stop-color="#F9DB43"/>
<stop offset="1" stop-color="#FD495E"/>
</linearGradient>
<linearGradient id="paint3_linear_2577_160352" x1="13.9388" y1="11.3182" x2="13.4483" y2="11.176" gradientUnits="userSpaceOnUse">
<stop stop-color="#F9DB43"/>
<stop offset="1" stop-color="#FD495E"/>
</linearGradient>
<linearGradient id="paint4_linear_2577_160352" x1="13.8585" y1="10.4141" x2="13.368" y2="10.2719" gradientUnits="userSpaceOnUse">
<stop stop-color="#F9DB43"/>
<stop offset="1" stop-color="#FD495E"/>
</linearGradient>
<linearGradient id="paint5_linear_2577_160352" x1="14.7996" y1="10.2115" x2="14.3092" y2="10.0693" gradientUnits="userSpaceOnUse">
<stop stop-color="#F9DB43"/>
<stop offset="1" stop-color="#FD495E"/>
</linearGradient>
<linearGradient id="paint6_linear_2577_160352" x1="14.9212" y1="8.92487" x2="14.4308" y2="8.78267" gradientUnits="userSpaceOnUse">
<stop stop-color="#F9DB43"/>
<stop offset="1" stop-color="#FD495E"/>
</linearGradient>
<linearGradient id="paint7_linear_2577_160352" x1="14.2835" y1="9.76741" x2="13.7931" y2="9.62521" gradientUnits="userSpaceOnUse">
<stop stop-color="#F9DB43"/>
<stop offset="1" stop-color="#FD495E"/>
</linearGradient>
<linearGradient id="paint8_linear_2577_160352" x1="14.452" y1="11.868" x2="13.9615" y2="11.7258" gradientUnits="userSpaceOnUse">
<stop stop-color="#F9DB43"/>
<stop offset="1" stop-color="#FD495E"/>
</linearGradient>
<linearGradient id="paint9_linear_2577_160352" x1="13.5135" y1="13.0618" x2="13.0602" y2="12.9304" gradientUnits="userSpaceOnUse">
<stop stop-color="#F9DB43"/>
<stop offset="1" stop-color="#FD495E"/>
</linearGradient>
<linearGradient id="paint10_linear_2577_160352" x1="13.955" y1="12.4401" x2="13.6777" y2="12.3597" gradientUnits="userSpaceOnUse">
<stop stop-color="#F9DB43"/>
<stop offset="1" stop-color="#FD495E"/>
</linearGradient>
<linearGradient id="paint11_linear_2577_160352" x1="13.1352" y1="11.5458" x2="12.7579" y2="11.4364" gradientUnits="userSpaceOnUse">
<stop stop-color="#F9DB43"/>
<stop offset="1" stop-color="#FD495E"/>
</linearGradient>
<linearGradient id="paint12_linear_2577_160352" x1="14.3405" y1="9.04509" x2="13.9632" y2="8.93571" gradientUnits="userSpaceOnUse">
<stop stop-color="#F9DB43"/>
<stop offset="1" stop-color="#FD495E"/>
</linearGradient>
<linearGradient id="paint13_linear_2577_160352" x1="14.8161" y1="9.62955" x2="14.4388" y2="9.52016" gradientUnits="userSpaceOnUse">
<stop stop-color="#F9DB43"/>
<stop offset="1" stop-color="#FD495E"/>
</linearGradient>
<linearGradient id="paint14_linear_2577_160352" x1="12.9323" y1="12.6662" x2="12.555" y2="12.5568" gradientUnits="userSpaceOnUse">
<stop stop-color="#F9DB43"/>
<stop offset="1" stop-color="#FD495E"/>
</linearGradient>
<linearGradient id="paint15_linear_2577_160352" x1="12.8425" y1="13.5898" x2="12.4652" y2="13.4804" gradientUnits="userSpaceOnUse">
<stop stop-color="#F9DB43"/>
<stop offset="1" stop-color="#FD495E"/>
</linearGradient>
</defs>
</svg>
