<svg width="21" height="20" viewBox="0 0 21 20" fill="none" xmlns="http://www.w3.org/2000/svg">
<g id="Diamond blue">
<path id="Vector" d="M18.1804 7.70825L10.0554 17.7083L1.93042 7.70825L6.30542 2.70825H13.8054L18.1804 7.70825Z" fill="#38ACFF"/>
<path id="Vector_2" fill-rule="evenodd" clip-rule="evenodd" d="M10.0553 18.1251C9.92986 18.1251 9.81109 18.0685 9.73196 17.9712L1.60696 7.97116C1.47896 7.81362 1.48311 7.58679 1.61677 7.43404L5.99176 2.43404C6.07088 2.34362 6.18519 2.29175 6.30534 2.29175H13.8053C13.9255 2.29175 14.0398 2.34362 14.1189 2.43404L18.4939 7.43404C18.6276 7.58679 18.6317 7.81362 18.5037 7.97116L10.3787 17.9712C10.2996 18.0685 10.1808 18.1251 10.0553 18.1251ZM6.30534 2.70841H13.8053L18.1803 7.70841L10.0553 17.7084L1.93034 7.70841L6.30534 2.70841Z" fill="#042360"/>
<path id="Vector_3" d="M13.8054 2.70825L18.1804 7.70825H1.93042L6.30542 2.70825H13.8054Z" fill="#63BDFF"/>
<path id="Vector_4" d="M18.1804 7.70825L10.0554 17.7083V2.70825H13.8054L18.1804 7.70825Z" fill="#2D88F3"/>
<path id="Vector_5" d="M18.1804 7.70825H10.0554V2.70825H13.8054L18.1804 7.70825Z" fill="#53A1FE"/>
<path id="Vector_6" d="M1.93042 7.70825L10.0554 17.7083L5.88875 7.70825L10.0554 2.70825H6.30542L1.93042 7.70825Z" fill="#46CAF3"/>
<path id="Vector_7" d="M6.51375 2.70825L1.93042 7.70825H5.88875L10.0554 2.70825H6.51375Z" fill="#68DBFF"/>
<path id="Vector_8" d="M1.93042 7.70825L10.0554 17.7083L3.38875 7.70825L7.76375 2.70825H6.30542L1.93042 7.70825Z" fill="#C1E9FF"/>
<path id="Vector_9" d="M6.30542 2.70825L1.93042 7.70825H3.38875L7.76375 2.70825H6.30542Z" fill="#D8F1FF"/>
<path id="Vector_10" d="M18.1804 7.70825L10.0554 17.7083L14.2221 7.70825L10.0554 2.70825H13.8054L18.1804 7.70825Z" fill="#4E5CDE"/>
<path id="Vector_11" d="M13.8054 2.70825L18.1804 7.70825H14.2221L10.0554 2.70825H13.8054Z" fill="#6A78F5"/>
<path id="Vector_12" d="M18.1804 7.70825L10.0554 17.7083L16.7221 7.70825L12.3471 2.70825H13.8054L18.1804 7.70825Z" fill="#2D88F3"/>
<path id="Vector_13" d="M13.8055 2.70825L18.1805 7.70825H16.7222L12.3472 2.70825H13.8055Z" fill="#52A1FE"/>
<path id="Vector_14" fill-rule="evenodd" clip-rule="evenodd" d="M5.60853 4.00915C5.69549 4.08451 5.70488 4.21609 5.62953 4.30303L2.9212 7.42803C2.84584 7.51498 2.71426 7.52438 2.62732 7.44903C2.54036 7.37367 2.53097 7.24209 2.60632 7.15515L5.31465 4.03015C5.39001 3.94319 5.52159 3.9338 5.60853 4.00915Z" fill="white"/>
<path id="Vector_15" fill-rule="evenodd" clip-rule="evenodd" d="M9.56678 4.00915C9.65374 4.08451 9.66313 4.21609 9.58778 4.30303L6.87945 7.42803C6.80409 7.51498 6.67251 7.52438 6.58557 7.44903C6.49861 7.37367 6.48922 7.24209 6.56457 7.15515L9.27291 4.03015C9.34826 3.94319 9.47984 3.9338 9.56678 4.00915Z" fill="#8FD0FF"/>
<path id="Vector_16" d="M11.9303 10.4166C11.9303 10.5316 11.8371 10.6249 11.722 10.6249C11.6069 10.6249 11.5137 10.5316 11.5137 10.4166C11.5137 10.3015 11.6069 10.2083 11.722 10.2083C11.8371 10.2083 11.9303 10.3015 11.9303 10.4166Z" fill="#2478DC"/>
<path id="Vector_17" d="M12.5553 11.2501C12.5553 11.3651 12.4621 11.4584 12.347 11.4584C12.2319 11.4584 12.1387 11.3651 12.1387 11.2501C12.1387 11.135 12.2319 11.0417 12.347 11.0417C12.4621 11.0417 12.5553 11.135 12.5553 11.2501Z" fill="#2478DC"/>
<path id="Vector_18" d="M11.7221 12.2916C11.7221 12.4066 11.6288 12.4999 11.5138 12.4999C11.3987 12.4999 11.3054 12.4066 11.3054 12.2916C11.3054 12.1765 11.3987 12.0833 11.5138 12.0833C11.6288 12.0833 11.7221 12.1765 11.7221 12.2916Z" fill="#2478DC"/>
<path id="Vector_19" d="M11.0971 12.7083C11.0971 12.8234 11.0038 12.9167 10.8888 12.9167C10.7737 12.9167 10.6804 12.8234 10.6804 12.7083C10.6804 12.5933 10.7737 12.5 10.8888 12.5C11.0038 12.5 11.0971 12.5933 11.0971 12.7083Z" fill="#2478DC"/>
<path id="Vector_20" d="M11.0971 13.9583C11.0971 14.0734 11.0038 14.1667 10.8888 14.1667C10.7737 14.1667 10.6804 14.0734 10.6804 13.9583C10.6804 13.8433 10.7737 13.75 10.8888 13.75C11.0038 13.75 11.0971 13.8433 11.0971 13.9583Z" fill="#2478DC"/>
<path id="Vector_21" d="M11.3053 9.79159C11.3053 9.90665 11.2121 9.99992 11.097 9.99992C10.9819 9.99992 10.8887 9.90665 10.8887 9.79159C10.8887 9.67652 10.9819 9.58325 11.097 9.58325C11.2121 9.58325 11.3053 9.67652 11.3053 9.79159Z" fill="#2478DC"/>
<path id="Vector_22" d="M12.9721 9.37508C12.9721 9.49014 12.8788 9.58341 12.7638 9.58341C12.6487 9.58341 12.5554 9.49014 12.5554 9.37508C12.5554 9.26002 12.6487 9.16675 12.7638 9.16675C12.8788 9.16675 12.9721 9.26002 12.9721 9.37508Z" fill="#2478DC"/>
<path id="Vector_23" d="M12.1387 9.27075C12.1387 9.44334 11.9988 9.58325 11.8262 9.58325C11.6536 9.58325 11.5137 9.44334 11.5137 9.27075C11.5137 9.09817 11.6536 8.95825 11.8262 8.95825C11.9988 8.95825 12.1387 9.09817 12.1387 9.27075Z" fill="#2478DC"/>
<path id="Vector_24" d="M11.7222 11.3542C11.7222 11.5268 11.5823 11.6667 11.4097 11.6667C11.2371 11.6667 11.0972 11.5268 11.0972 11.3542C11.0972 11.1817 11.2371 11.0417 11.4097 11.0417C11.5823 11.0417 11.7222 11.1817 11.7222 11.3542Z" fill="#2478DC"/>
</g>
</svg>
