<svg width="21" height="20" viewBox="0 0 21 20" fill="none" xmlns="http://www.w3.org/2000/svg">
<path fill-rule="evenodd" clip-rule="evenodd" d="M14.2984 6.86063C14.2984 8.8187 12.7374 10.3888 10.7907 10.3888C8.84394 10.3888 7.28295 8.8187 7.28295 6.86063C7.28295 4.90181 8.84394 3.33325 10.7907 3.33325C12.7374 3.33325 14.2984 4.90181 14.2984 6.86063ZM10.7907 16.6666C7.93138 16.6666 5.48991 16.2133 5.48991 14.4001C5.48991 12.5861 7.91571 12.1163 10.7907 12.1163C13.65 12.1163 16.0915 12.5696 16.0915 14.3835C16.0915 16.1968 13.6657 16.6666 10.7907 16.6666ZM15.7974 6.92427C15.7974 7.92244 15.4997 8.85232 14.9774 9.62534C14.9237 9.7049 14.9714 9.81222 15.0662 9.82873C15.1967 9.85124 15.3318 9.864 15.4691 9.86775C16.8383 9.90378 18.0673 9.01743 18.4068 7.68303C18.9097 5.70095 17.433 3.9215 15.5527 3.9215C15.3482 3.9215 15.1527 3.94326 14.9625 3.98229C14.9363 3.98829 14.9087 4.0003 14.8938 4.02357C14.8759 4.05209 14.8893 4.09036 14.9072 4.11513C15.4721 4.91142 15.7974 5.88257 15.7974 6.92427ZM18.065 11.2604C18.985 11.4413 19.5902 11.8105 19.8409 12.3471C20.0528 12.7877 20.0528 13.2988 19.8409 13.7386C19.4574 14.5709 18.221 14.8381 17.7404 14.9071C17.6412 14.9221 17.5614 14.8358 17.5718 14.736C17.8173 12.4297 15.8646 11.3362 15.3594 11.0848C15.3378 11.0735 15.3333 11.0563 15.3355 11.0457C15.337 11.0382 15.346 11.0262 15.3624 11.024C16.4555 11.0037 17.6308 11.1538 18.065 11.2604ZM6.19743 9.86768C6.33472 9.86393 6.46903 9.85192 6.60036 9.82865C6.69512 9.81214 6.74288 9.70482 6.68915 9.62527C6.16684 8.85225 5.86911 7.92237 5.86911 6.9242C5.86911 5.88249 6.19444 4.91134 6.75929 4.11505C6.7772 4.09029 6.78989 4.05201 6.77272 4.02349C6.7578 4.00098 6.72945 3.98822 6.70408 3.98221C6.51306 3.94319 6.31756 3.92142 6.11311 3.92142C4.23277 3.92142 2.7561 5.70087 3.25976 7.68296C3.59927 9.01736 4.82821 9.9037 6.19743 9.86768ZM6.33062 11.0453C6.33286 11.0566 6.32838 11.0731 6.30749 11.0851C5.80159 11.3365 3.84886 12.43 4.09435 14.7355C4.1048 14.8361 4.0257 14.9217 3.92646 14.9074C3.44593 14.8384 2.20953 14.5712 1.826 13.7389C1.61334 13.2983 1.61334 12.788 1.826 12.3474C2.07671 11.8108 2.68111 11.4416 3.60113 11.2599C4.03615 11.1541 5.21062 11.004 6.3045 11.0243C6.32092 11.0265 6.32913 11.0385 6.33062 11.0453Z" fill="url(#paint0_linear_2577_160357)"/>
<defs>
<linearGradient id="paint0_linear_2577_160357" x1="19.9998" y1="16.6666" x2="-0.405864" y2="8.53147" gradientUnits="userSpaceOnUse">
<stop stop-color="#FF5A5F"/>
<stop offset="1" stop-color="#FF8A9B"/>
</linearGradient>
</defs>
</svg>
